<?xml version="1.0" encoding="UTF-8"?>
<!-- Generator: visioncortex VTracer 0.6.12 -->
<svg width="512" height="512" version="1.1" xmlns="http://www.w3.org/2000/svg">
 <path transform="translate(64)" d="m0 0h96v32h64v32h32v-32h64v-32h128v32h32v32h32v384h-32v32h-32v32h-384v-32h-32v-32h-32v-384h32v-32h32v-32z" fill="#F04F78"/>
 <path transform="translate(320)" d="m0 0h128v32h32v32h32v384h-160v-32h-32v-32h-32v-128h-32v-64h32v-32h-32v-32h32v-32h-32v-64h64v-32z" fill="#F04F78"/>
 <path transform="translate(352,224)" d="m0 0h64v64h64v160h-128v-32h-32v-32h-32v-96h64v-64z" fill="#F04F78"/>
 <path transform="translate(32,448)" d="m0 0h448v32h-32v32h-384v-32h-32v-32z" fill="#C32454"/>
 <path transform="translate(320)" d="m0 0h128v32h32v32h32v384h-32v-352h-32v-32h-192v-32h64v-32z" fill="#3E3546"/>
 <path transform="translate(224,64)" d="m0 0h32v32h32v32h-32v32h32v32h-32v64h32v128h-96v-128h32v-64h-32v-32h32v-32h-32v-32h32v-32z" fill="#3E3546"/>
 <path transform="translate(64,480)" d="m0 0h384v32h-384v-32z" fill="#3E3546"/>
 <path transform="translate(0,64)" d="m0 0h32v384h-32v-384z" fill="#3E3546"/>
 <path transform="translate(320)" d="m0 0h128v32h32v64h-32v-32h-192v-32h64v-32z" fill="#F68181"/>
 <path transform="translate(224,64)" d="m0 0h32v32h32v32h-32v32h32v32h-32v64h-32v-64h-32v-32h32v-32h-32v-32h32v-32z" fill="#3E3546"/>
 <path transform="translate(64)" d="m0 0h96v32h64v32h-192v-32h32v-32z" fill="#F68181"/>
 <path transform="translate(320)" d="m0 0h128v32h-128v-32z" fill="#3E3546"/>
 <path transform="translate(288,288)" d="m0 0h32v96h-32v-96z" fill="#fff"/>
 <path transform="translate(64)" d="m0 0h96v32h-96v-32z" fill="#3E3546"/>
 <path transform="translate(352,416)" d="m0 0h64v32h-64v-32z" fill="#fff"/>
 <path transform="translate(384,352)" d="m0 0h64v32h-64v-32z" fill="#fff"/>
 <path transform="translate(448,288)" d="m0 0h32v64h-32v-64z" fill="#fff"/>
 <path transform="translate(224,256)" d="m0 0h32v64h-32v-64z" fill="#966C6C"/>
 <path transform="translate(352,224)" d="m0 0h64v32h-64v-32z" fill="#fff"/>
 <path transform="translate(256,64)" d="m0 0h64v32h-64v-32z" fill="#F68181"/>
 <path transform="translate(160,64)" d="m0 0h64v32h-64v-32z" fill="#F68181"/>
 <path transform="translate(256,32)" d="m0 0h64v32h-64v-32z" fill="#3E3546"/>
 <path transform="translate(160,32)" d="m0 0h64v32h-64v-32z" fill="#3E3546"/>
 <path transform="translate(448,448)" d="m0 0h32v32h-32v-32z" fill="#3E3546"/>
 <path transform="translate(32,448)" d="m0 0h32v32h-32v-32z" fill="#3E3546"/>
 <path transform="translate(448,416)" d="m0 0h32v32h-32v-32z" fill="#C32454"/>
 <path transform="translate(32,416)" d="m0 0h32v32h-32v-32z" fill="#C32454"/>
 <path transform="translate(320,384)" d="m0 0h32v32h-32v-32z" fill="#fff"/>
 <path transform="translate(352,320)" d="m0 0h32v32h-32v-32z" fill="#fff"/>
 <path transform="translate(224,320)" d="m0 0h32v32h-32v-32z" fill="#625565"/>
 <path transform="translate(416,256)" d="m0 0h32v32h-32v-32z" fill="#fff"/>
 <path transform="translate(320,256)" d="m0 0h32v32h-32v-32z" fill="#fff"/>
 <path transform="translate(224,256)" d="m0 0h32v32h-32v-32z" fill="#AB947A"/>
 <path transform="translate(256,192)" d="m0 0h32v32h-32v-32z" fill="#F68181"/>
 <path transform="translate(192,192)" d="m0 0h32v32h-32v-32z" fill="#F68181"/>
 <path transform="translate(256,128)" d="m0 0h32v32h-32v-32z" fill="#F68181"/>
 <path transform="translate(192,128)" d="m0 0h32v32h-32v-32z" fill="#F68181"/>
 <path transform="translate(448,64)" d="m0 0h32v32h-32v-32z" fill="#F68181"/>
 <path transform="translate(32,64)" d="m0 0h32v32h-32v-32z" fill="#F68181"/>
 <path transform="translate(448,32)" d="m0 0h32v32h-32v-32z" fill="#3E3546"/>
 <path transform="translate(32,32)" d="m0 0h32v32h-32v-32z" fill="#3E3546"/>
</svg>
