<?xml version="1.0" encoding="UTF-8"?>
<!-- Generator: visioncortex VTracer 0.6.12 -->
<svg width="512" height="512" version="1.1" xmlns="http://www.w3.org/2000/svg">
 <path transform="translate(64)" d="m0 0h96v32h64v32h32v-32h64v-32h128v32h32v32h32v384h-32v32h-32v32h-384v-32h-32v-32h-32v-384h32v-32h32v-32z" fill="#E83B3B"/>
 <path transform="translate(64)" d="m0 0h96v32h64v32h-160v32h-32v320h32v32h352v-32h32v-32h32v-288h-32v-32h-192v-32h64v-32h128v32h32v32h32v384h-32v32h-32v32h-384v-32h-32v-32h-32v-384h32v-32h32v-32z" fill="#5C3245"/>
 <path transform="translate(256,64)" d="m0 0h192v32h32v288h-32v32h-32v32h-96v-32h-32v-160h-32v-64h32v-32h-32v-32h32v-32h-32v-32z" fill="#E83B3B"/>
 <path transform="translate(64)" d="m0 0h96v32h64v32h-160v32h-32v320h32v64h-32v-32h-32v-384h32v-32h32v-32z" fill="#3E3546"/>
 <path transform="translate(224,64)" d="m0 0h32v32h32v32h-32v32h32v32h-32v64h32v128h-96v-128h32v-64h-32v-32h32v-32h-32v-32h32v-32z" fill="#3E3546"/>
 <path transform="translate(64,480)" d="m0 0h384v32h-384v-32z" fill="#3E3546"/>
 <path transform="translate(320)" d="m0 0h128v32h32v64h-32v-32h-192v-32h64v-32z" fill="#FB6B1D"/>
 <path transform="translate(224,64)" d="m0 0h32v32h32v32h-32v32h32v32h-32v64h-32v-64h-32v-32h32v-32h-32v-32h32v-32z" fill="#3E3546"/>
 <path transform="translate(64)" d="m0 0h96v32h64v32h-160v32h-32v-64h32v-32z" fill="#FB6B1D"/>
 <path transform="translate(416,320)" d="m0 0h64v64h-32v32h-32v-32h-96v-32h96v-32z" fill="#fff"/>
 <path transform="translate(320)" d="m0 0h128v32h-128v-32z" fill="#3E3546"/>
 <path transform="translate(448,384)" d="m0 0h32v64h-64v-32h32v-32z" fill="#7A3045"/>
 <path transform="translate(320,416)" d="m0 0h96v32h-96v-32z" fill="#fff"/>
 <path transform="translate(320,384)" d="m0 0h96v32h-96v-32z" fill="#E83B3B"/>
 <path transform="translate(320,352)" d="m0 0h96v32h-96v-32z" fill="#fff"/>
 <path transform="translate(64)" d="m0 0h96v32h-96v-32z" fill="#3E3546"/>
 <path transform="translate(224,256)" d="m0 0h32v64h-32v-64z" fill="#966C6C"/>
 <path transform="translate(320,224)" d="m0 0h32v64h-32v-64z" fill="#fff"/>
 <path transform="translate(384,192)" d="m0 0h32v64h-32v-64z" fill="#fff"/>
 <path transform="translate(256,64)" d="m0 0h64v32h-64v-32z" fill="#FB6B1D"/>
 <path transform="translate(160,64)" d="m0 0h64v32h-64v-32z" fill="#FB6B1D"/>
 <path transform="translate(256,32)" d="m0 0h64v32h-64v-32z" fill="#3E3546"/>
 <path transform="translate(160,32)" d="m0 0h64v32h-64v-32z" fill="#3E3546"/>
 <path transform="translate(448,448)" d="m0 0h32v32h-32v-32z" fill="#3E3546"/>
 <path transform="translate(416,416)" d="m0 0h32v32h-32v-32z" fill="#E83B3B"/>
 <path transform="translate(32,416)" d="m0 0h32v32h-32v-32z" fill="#7A3045"/>
 <path transform="translate(448,384)" d="m0 0h32v32h-32v-32z" fill="#E83B3B"/>
 <path transform="translate(416,384)" d="m0 0h32v32h-32v-32z" fill="#fff"/>
 <path transform="translate(288,384)" d="m0 0h32v32h-32v-32z" fill="#fff"/>
 <path transform="translate(416,352)" d="m0 0h32v32h-32v-32z" fill="#E83B3B"/>
 <path transform="translate(288,352)" d="m0 0h32v32h-32v-32z" fill="#E83B3B"/>
 <path transform="translate(288,320)" d="m0 0h32v32h-32v-32z" fill="#fff"/>
 <path transform="translate(224,320)" d="m0 0h32v32h-32v-32z" fill="#625565"/>
 <path transform="translate(352,288)" d="m0 0h32v32h-32v-32z" fill="#fff"/>
 <path transform="translate(416,256)" d="m0 0h32v32h-32v-32z" fill="#fff"/>
 <path transform="translate(224,256)" d="m0 0h32v32h-32v-32z" fill="#AB947A"/>
 <path transform="translate(256,192)" d="m0 0h32v32h-32v-32z" fill="#FB6B1D"/>
 <path transform="translate(192,192)" d="m0 0h32v32h-32v-32z" fill="#FB6B1D"/>
 <path transform="translate(256,128)" d="m0 0h32v32h-32v-32z" fill="#FB6B1D"/>
 <path transform="translate(192,128)" d="m0 0h32v32h-32v-32z" fill="#FB6B1D"/>
 <path transform="translate(448,64)" d="m0 0h32v32h-32v-32z" fill="#FB6B1D"/>
 <path transform="translate(32,64)" d="m0 0h32v32h-32v-32z" fill="#FB6B1D"/>
 <path transform="translate(448,32)" d="m0 0h32v32h-32v-32z" fill="#3E3546"/>
 <path transform="translate(32,32)" d="m0 0h32v32h-32v-32z" fill="#3E3546"/>
</svg>
