<?xml version="1.0" encoding="UTF-8"?>
<!-- Generator: visioncortex VTracer 0.6.12 -->
<svg width="512" height="512" version="1.1" xmlns="http://www.w3.org/2000/svg">
 <path transform="translate(64)" d="m0 0h256v32h32v32h32v32h32v32h32v32h32v320h-32v32h-384v-32h-32v-448h32v-32z" fill="#3E3546"/>
 <path transform="translate(64,32)" d="m0 0h224v192h-64v32h-32v32h-32v96h32v32h32v32h-160v-416z" fill="#fff"/>
 <path transform="translate(32,32)" d="m0 0h32v416h160v-32h-32v-32h-32v-96h32v-32h32v-32h64v32h32v32h32v96h-32v32h-32v32h160v64h-384v-32h-32v-448z" fill="#625565"/>
 <path transform="translate(288,224)" d="m0 0h160v224h-160v-32h32v-32h32v-96h-32v-32h-32v-32z" fill="#fff"/>
 <path transform="translate(32,32)" d="m0 0h32v448h-32v-448z" fill="#3E3546"/>
 <path transform="translate(64,480)" d="m0 0h384v32h-384v-32z" fill="#3E3546"/>
 <path transform="translate(64,448)" d="m0 0h384v32h-384v-32z" fill="#AB947A"/>
 <path transform="translate(320,64)" d="m0 0h64v32h32v64h-96v-96z" fill="#fff"/>
 <path transform="translate(64,32)" d="m0 0h224v32h-224v-32z" fill="#E3C896"/>
 <path transform="translate(288,192)" d="m0 0h160v32h-160v-32z" fill="#AB947A"/>
 <path transform="translate(224,320)" d="m0 0h64v64h-64v-64z" fill="#966C6C"/>
 <path transform="translate(224,320)" d="m0 0h64v32h-64v-32z" fill="#fff"/>
 <path transform="translate(224,224)" d="m0 0h64v32h-64v-32z" fill="#966C6C"/>
 <path transform="translate(320,288)" d="m0 0h32v32h-32v-32z" fill="#966C6C"/>
 <path transform="translate(160,288)" d="m0 0h32v32h-32v-32z" fill="#966C6C"/>
 <path transform="translate(288,256)" d="m0 0h32v32h-32v-32z" fill="#966C6C"/>
 <path transform="translate(192,256)" d="m0 0h32v32h-32v-32z" fill="#966C6C"/>
 <path transform="translate(384,96)" d="m0 0h32v32h-32v-32z" fill="#3E3546"/>
 <path transform="translate(352,64)" d="m0 0h32v32h-32v-32z" fill="#3E3546"/>
</svg>
