<?xml version="1.0" encoding="UTF-8"?>
<svg width="512" height="480" shape-rendering="crispEdges" version="1.1" viewBox="0 32 512 480" xmlns="http://www.w3.org/2000/svg">
<path transform="translate(192,352)" d="m0 0h288v32h-32v32h-32v-32h-224z" fill="#3E3546"/>
<path transform="translate(160,96)" d="m0 0h32v96h-32v32h-32v32h-96v-32h64v-32h32v-32h32z" fill="#30E1B9"/>
<path transform="translate(160,32)" d="m0 0h256v32h-32v32h-32v-32h-192z" fill="#3E3546"/>
<path transform="translate(64,288)" d="m0 0h64v32h32v32h-32v32h-64z" fill="#30E1B9"/>
<path transform="translate(160,480)" d="m0 0h192v32h-192z" fill="#3E3546"/>
<path transform="translate(256,384)" d="m0 0h128v32h-32v32h-64v-32h-32z" fill="#4D9BE6"/>
<path transform="translate(160,448)" d="m0 0h160v32h-160z" fill="#0B8A8F"/>
<path transform="translate(192,384)" d="m0 0h64v32h32v32h-96z" fill="#30E1B9"/>
<path transform="translate(128,352)" d="m0 0h64v96h-32v-64h-32z" fill="#4D9BE6"/>
<path transform="translate(32,256)" d="m0 0h96v32h-64v32h-32z" fill="#4D9BE6"/>
<path transform="translate(256,96)" d="m0 0h64v32h-32v32h-64v-32h32z" fill="#30E1B9"/>
<path transform="translate(224,64)" d="m0 0h128v32h-128z" fill="#8FF8E2"/>
<path transform="translate(128,224)" d="m0 0h32v96h-32z" fill="#3E3546"/>
<path transform="translate(0,224)" d="m0 0h32v96h-32z" fill="#3E3546"/>
<path transform="translate(192,160)" d="m0 0h96v32h-96z" fill="#3E3546"/>
<path transform="translate(64,160)" d="m0 0h64v32h-32v32h-32z" fill="#4D9BE6"/>
<path transform="translate(192,96)" d="m0 0h64v32h-32v32h-32z" fill="#4D9BE6"/>
<path transform="translate(32,320)" d="m0 0h32v64h-32z" fill="#3E3546"/>
<path transform="translate(32,160)" d="m0 0h32v64h-32z" fill="#3E3546"/>
<path transform="translate(352,448)" d="m0 0h32v32h-32z" fill="#3E3546"/>
<path transform="translate(320,448)" d="m0 0h32v32h-32z" fill="#4D65B4"/>
<path transform="translate(128,448)" d="m0 0h32v32h-32z" fill="#3E3546"/>
<path transform="translate(384,416)" d="m0 0h32v32h-32z" fill="#3E3546"/>
<path transform="translate(352,416)" d="m0 0h32v32h-32z" fill="#4D65B4"/>
<path transform="translate(128,416)" d="m0 0h32v32h-32z" fill="#0B8A8F"/>
<path transform="translate(96,416)" d="m0 0h32v32h-32z" fill="#3E3546"/>
<path transform="translate(384,384)" d="m0 0h32v32h-32z" fill="#4D65B4"/>
<path transform="translate(128,384)" d="m0 0h32v32h-32z" fill="#30E1B9"/>
<path transform="translate(96,384)" d="m0 0h32v32h-32z" fill="#0B8A8F"/>
<path transform="translate(64,384)" d="m0 0h32v32h-32z" fill="#3E3546"/>
<path transform="translate(160,320)" d="m0 0h32v32h-32z" fill="#3E3546"/>
<path transform="translate(480,288)" d="m0 0h32v32h-32z" fill="#8FF8E2"/>
<path transform="translate(448,288)" d="m0 0h32v32h-32z" fill="#3E3546"/>
<path transform="translate(480,256)" d="m0 0h32v32h-32z" fill="#4D9BE6"/>
<path transform="translate(448,256)" d="m0 0h32v32h-32z" fill="#30E1B9"/>
<path transform="translate(384,224)" d="m0 0h32v32h-32z" fill="#8FF8E2"/>
<path transform="translate(352,224)" d="m0 0h32v32h-32z" fill="#3E3546"/>
<path transform="translate(384,192)" d="m0 0h32v32h-32z" fill="#4D9BE6"/>
<path transform="translate(352,192)" d="m0 0h32v32h-32z" fill="#30E1B9"/>
<path transform="translate(160,192)" d="m0 0h32v32h-32z" fill="#3E3546"/>
<path transform="translate(288,128)" d="m0 0h32v32h-32z" fill="#3E3546"/>
<path transform="translate(128,128)" d="m0 0h32v32h-32z" fill="#4D9BE6"/>
<path transform="translate(96,128)" d="m0 0h32v32h-32z" fill="#8FD3FF"/>
<path transform="translate(64,128)" d="m0 0h32v32h-32z" fill="#3E3546"/>
<path transform="translate(416,96)" d="m0 0h32v32h-32z" fill="#4D9BE6"/>
<path transform="translate(320,96)" d="m0 0h32v32h-32z" fill="#3E3546"/>
<path transform="translate(128,96)" d="m0 0h32v32h-32z" fill="#8FD3FF"/>
<path transform="translate(96,96)" d="m0 0h32v32h-32z" fill="#3E3546"/>
<path transform="translate(192,64)" d="m0 0h32v32h-32z" fill="#8FD3FF"/>
<path transform="translate(160,64)" d="m0 0h32v32h-32z" fill="#8FF8E2"/>
<path transform="translate(128,64)" d="m0 0h32v32h-32z" fill="#3E3546"/>
</svg>
