<?xml version="1.0" encoding="UTF-8" standalone="no"?>
<!-- Created with Inkscape (http://www.inkscape.org/) -->

<svg
   width="16"
   height="16"
   viewBox="0 0 16 16"
   version="1.1"
   id="svg1"
   xml:space="preserve"
   xmlns="http://www.w3.org/2000/svg"
   xmlns:svg="http://www.w3.org/2000/svg"><defs
     id="defs1" /><g
     id="layer1"><path
       id="rect43"
       style="fill:#3e3546;stroke-width:0.022"
       d="m 1,0 v 1 h 1 1 1 1 1 1 1 1 1 1 1 V 0 H 11 10 9 8 7 6 5 4 3 2 Z m 11,1 v 1 1 1 1 1 1 1 1 h 1 V 8 7 h 1 1 V 6 H 14 13 V 5 4 3 2 1 Z m 3,6 v 1 1 1 1 1 H 14 13 12 11 10 9 8 7 6 5 4 v -1 -1 h 1 1 1 1 1 1 1 1 V 9 H 11 10 9 8 7 6 5 4 3 2 1 v 1 h 1 1 v 1 1 1 1 1 h 1 v -1 h 1 1 1 1 1 1 1 1 1 1 1 v 1 h 1 V 14 13 12 11 10 9 8 7 Z m 0,8 H 14 13 12 11 10 9 8 7 6 5 4 v 1 h 1 1 1 1 1 1 1 1 1 1 1 z M 1,9 V 8 7 6 5 4 3 2 1 H 0 V 2 3 4 5 6 7 8 9 Z M 8,2 v 1 h 1 1 1 V 2 H 10 9 Z" /><path
       id="rect109"
       style="fill:#cd683d;stroke-width:0.022"
       d="M 2,2 V 3 4 5 6 7 H 3 4 5 6 7 V 6 5 4 3 2 H 6 5 4 3 Z M 4,3 H 5 V 4 H 4 Z M 3,5 H 4 5 6 V 6 H 5 4 3 Z" /><path
       id="rect132"
       style="fill:#625565;stroke-width:0.022"
       d="m 8,4 v 1 h 1 1 1 V 4 H 10 9 Z m 0,2 v 1 h 1 1 V 6 H 9 Z" /><path
       id="rect160"
       style="fill:#4d65b4;stroke-width:0.022"
       d="m 4,14 v 1 h 1 1 1 1 1 1 1 1 1 1 1 V 14 H 14 13 12 11 10 9 8 7 6 5 Z" /><path
       id="rect171"
       style="fill:#4d9be6;stroke-width:0.022"
       d="m 13,8 v 1 h -1 v 1 H 11 10 9 8 7 6 5 4 v 1 1 h 1 1 1 1 1 1 1 1 1 1 1 V 11 10 9 8 h -1 z" /><path
       id="rect198"
       style="fill:#8fd3ff;stroke-width:0.022"
       d="m 13,7 v 1 h 1 1 V 7 h -1 z" /><path
       id="rect200"
       style="fill:#ffffff;stroke-width:0.022"
       d="m 1,1 v 1 1 1 1 1 1 1 h 1 1 1 1 1 1 1 1 1 1 1 V 7 6 5 4 3 2 1 H 11 10 9 8 7 6 5 4 3 2 Z M 2,2 H 3 4 5 6 7 V 3 4 5 6 7 H 6 5 4 3 2 V 6 5 4 3 Z m 6,0 h 1 1 1 V 3 H 10 9 8 Z M 4,3 V 4 H 5 V 3 Z m 4,1 h 1 1 1 V 5 H 10 9 8 Z M 3,5 V 6 H 4 5 6 V 5 H 5 4 Z m 5,1 h 1 1 V 7 H 9 8 Z" /><path
       id="rect248"
       style="fill:#e3c896;stroke-width:0.022"
       d="m 1,8 v 1 h 1 1 1 1 1 1 1 1 1 1 1 V 8 H 11 10 9 8 7 6 5 4 3 2 Z" /></g></svg>
