<?xml version="1.0" encoding="UTF-8" standalone="no"?>
<svg
   width="512"
   height="512"
   shape-rendering="crispEdges"
   version="1.1"
   viewBox="0 0 512 512"
   id="svg19"
   sodipodi:docname="r2modman.svg"
   inkscape:version="1.4.3 (0d15f75042, 2025-12-25)"
   xmlns:inkscape="http://www.inkscape.org/namespaces/inkscape"
   xmlns:sodipodi="http://sodipodi.sourceforge.net/DTD/sodipodi-0.dtd"
   xmlns="http://www.w3.org/2000/svg"
   xmlns:svg="http://www.w3.org/2000/svg">
  <defs
     id="defs19" />
  <sodipodi:namedview
     id="namedview19"
     pagecolor="#ffffff"
     bordercolor="#000000"
     borderopacity="0.25"
     inkscape:showpageshadow="2"
     inkscape:pageopacity="0.0"
     inkscape:pagecheckerboard="0"
     inkscape:deskcolor="#d1d1d1"
     inkscape:zoom="0.359375"
     inkscape:cx="382.6087"
     inkscape:cy="-311.65217"
     inkscape:window-width="1033"
     inkscape:window-height="1009"
     inkscape:window-x="0"
     inkscape:window-y="0"
     inkscape:window-maximized="1"
     inkscape:current-layer="svg19" />
  <path
     transform="translate(0,32)"
     d="m0 0h32v384h32v-32h64v-32h32v96h32v-96h32v32h32v32h32v32h64v-64h-32v-32h-32v-64h64v-32h32v-32h64v-32h32v-160h32v448h-32v32h-448v-32h-32z"
     fill="#3E3546"
     id="path1" />
  <path
     transform="translate(32,64)"
     d="m0 0h448v128h-32v32h-64v32h-32v32h-32v-128h-32v-32h-128v224h-32v32h-64v32h-32z"
     fill="#484A77"
     id="path2" />
  <path
     transform="translate(160,128)"
     d="m0 0h128v32h32v96h-32v32h-32v32h32v32h32v32h32v32h-64v-32h-32v-32h-32v-32h-32v96h-32zm32 32v96h64v-32h32v-32h-32v-32z"
     fill="#fff"
     id="path3" />
  <path
     transform="translate(32,32)"
     d="m0 0h448v32h-448z"
     fill="#4D65B4"
     id="path4" />
  <path
     transform="translate(32)"
     d="m0 0h448v32h-448z"
     fill="#3E3546"
     id="path5" />
  <path
     transform="translate(192,192)"
     d="m0 0h64v64h-64z"
     fill="#484A77"
     id="path6" />
  <path
     transform="translate(288,416)"
     d="m0 0h64v32h-64z"
     fill="#625565"
     id="path7" />
  <path
     transform="translate(192,160)"
     d="m0 0h64v32h-64z"
     fill="#625565"
     id="path8" />
  <path
     transform="translate(160,416)"
     d="m0 0h32v32h-32z"
     fill="#625565"
     id="path11" />
  <path
     transform="translate(256,384)"
     d="m0 0h32v32h-32z"
     fill="#625565"
     id="path12" />
  <path
     transform="translate(224,352)"
     d="m0 0h32v32h-32z"
     fill="#625565"
     id="path13" />
  <path
     transform="translate(192,320)"
     d="m0 0h32v32h-32z"
     fill="#625565"
     id="path14" />
  <path
     transform="translate(256,288)"
     d="m0 0h32v32h-32z"
     fill="#625565"
     id="path15" />
  <path
     transform="translate(288,256)"
     d="m0 0h32v32h-32z"
     fill="#625565"
     id="path16" />
  <path
     transform="translate(256,192)"
     d="m0 0h32v32h-32z"
     fill="#625565"
     id="path17" />
</svg>
