<?xml version="1.0" encoding="UTF-8"?>
<svg width="16" height="16" viewBox="0 0 16 16" shape-rendering="crispEdges" xmlns="http://www.w3.org/2000/svg">
  <rect x="2" y="0" width="12" height="1" fill="#3e3546"/>
  <rect x="1" y="1" width="1" height="1" fill="#3e3546"/>
  <rect x="2" y="1" width="12" height="1" fill="#8fd3ff"/>
  <rect x="14" y="1" width="1" height="1" fill="#3e3546"/>
  <rect x="0" y="2" width="1" height="1" fill="#3e3546"/>
  <rect x="1" y="2" width="1" height="1" fill="#8fd3ff"/>
  <rect x="2" y="2" width="12" height="1" fill="#4d9be6"/>
  <rect x="14" y="2" width="1" height="1" fill="#8fd3ff"/>
  <rect x="15" y="2" width="1" height="1" fill="#3e3546"/>
  <rect x="0" y="3" width="1" height="1" fill="#3e3546"/>
  <rect x="1" y="3" width="14" height="1" fill="#4d9be6"/>
  <rect x="15" y="3" width="1" height="1" fill="#3e3546"/>
  <rect x="0" y="4" width="1" height="1" fill="#3e3546"/>
  <rect x="1" y="4" width="3" height="1" fill="#4d9be6"/>
  <rect x="4" y="4" width="1" height="1" fill="#ffffff"/>
  <rect x="5" y="4" width="6" height="1" fill="#4d9be6"/>
  <rect x="11" y="4" width="1" height="1" fill="#ffffff"/>
  <rect x="12" y="4" width="3" height="1" fill="#4d9be6"/>
  <rect x="15" y="4" width="1" height="1" fill="#3e3546"/>
  <rect x="0" y="5" width="1" height="1" fill="#3e3546"/>
  <rect x="1" y="5" width="3" height="1" fill="#4d9be6"/>
  <rect x="4" y="5" width="1" height="1" fill="#ffffff"/>
  <rect x="5" y="5" width="6" height="1" fill="#4d9be6"/>
  <rect x="11" y="5" width="1" height="1" fill="#ffffff"/>
  <rect x="12" y="5" width="3" height="1" fill="#4d9be6"/>
  <rect x="15" y="5" width="1" height="1" fill="#3e3546"/>
  <rect x="0" y="6" width="1" height="1" fill="#3e3546"/>
  <rect x="1" y="6" width="3" height="1" fill="#4d9be6"/>
  <rect x="4" y="6" width="1" height="1" fill="#ffffff"/>
  <rect x="5" y="6" width="2" height="1" fill="#4d9be6"/>
  <rect x="7" y="6" width="2" height="1" fill="#ffffff"/>
  <rect x="9" y="6" width="2" height="1" fill="#4d9be6"/>
  <rect x="11" y="6" width="1" height="1" fill="#ffffff"/>
  <rect x="12" y="6" width="3" height="1" fill="#4d9be6"/>
  <rect x="15" y="6" width="1" height="1" fill="#3e3546"/>
  <rect x="0" y="7" width="1" height="1" fill="#3e3546"/>
  <rect x="1" y="7" width="3" height="1" fill="#4d9be6"/>
  <rect x="4" y="7" width="1" height="1" fill="#ffffff"/>
  <rect x="5" y="7" width="2" height="1" fill="#4d9be6"/>
  <rect x="7" y="7" width="2" height="1" fill="#ffffff"/>
  <rect x="9" y="7" width="2" height="1" fill="#4d9be6"/>
  <rect x="11" y="7" width="1" height="1" fill="#ffffff"/>
  <rect x="12" y="7" width="3" height="1" fill="#4d9be6"/>
  <rect x="15" y="7" width="1" height="1" fill="#3e3546"/>
  <rect x="0" y="8" width="1" height="1" fill="#3e3546"/>
  <rect x="1" y="8" width="3" height="1" fill="#4d9be6"/>
  <rect x="4" y="8" width="1" height="1" fill="#ffffff"/>
  <rect x="5" y="8" width="1" height="1" fill="#4d9be6"/>
  <rect x="6" y="8" width="1" height="1" fill="#ffffff"/>
  <rect x="7" y="8" width="2" height="1" fill="#4d9be6"/>
  <rect x="9" y="8" width="1" height="1" fill="#ffffff"/>
  <rect x="10" y="8" width="1" height="1" fill="#4d9be6"/>
  <rect x="11" y="8" width="1" height="1" fill="#ffffff"/>
  <rect x="12" y="8" width="3" height="1" fill="#4d9be6"/>
  <rect x="15" y="8" width="1" height="1" fill="#3e3546"/>
  <rect x="0" y="9" width="1" height="1" fill="#3e3546"/>
  <rect x="1" y="9" width="4" height="1" fill="#4d9be6"/>
  <rect x="5" y="9" width="1" height="1" fill="#ffffff"/>
  <rect x="6" y="9" width="4" height="1" fill="#4d9be6"/>
  <rect x="10" y="9" width="1" height="1" fill="#ffffff"/>
  <rect x="11" y="9" width="4" height="1" fill="#4d9be6"/>
  <rect x="15" y="9" width="1" height="1" fill="#3e3546"/>
  <rect x="0" y="10" width="1" height="1" fill="#3e3546"/>
  <rect x="1" y="10" width="4" height="1" fill="#4d9be6"/>
  <rect x="5" y="10" width="1" height="1" fill="#ffffff"/>
  <rect x="6" y="10" width="4" height="1" fill="#4d9be6"/>
  <rect x="10" y="10" width="1" height="1" fill="#ffffff"/>
  <rect x="11" y="10" width="4" height="1" fill="#4d9be6"/>
  <rect x="15" y="10" width="1" height="1" fill="#3e3546"/>
  <rect x="0" y="11" width="1" height="1" fill="#3e3546"/>
  <rect x="1" y="11" width="14" height="1" fill="#4d9be6"/>
  <rect x="15" y="11" width="1" height="1" fill="#3e3546"/>
  <rect x="0" y="12" width="1" height="1" fill="#3e3546"/>
  <rect x="1" y="12" width="14" height="1" fill="#4d9be6"/>
  <rect x="15" y="12" width="1" height="1" fill="#3e3546"/>
  <rect x="0" y="13" width="1" height="1" fill="#3e3546"/>
  <rect x="1" y="13" width="1" height="1" fill="#4d65b4"/>
  <rect x="2" y="13" width="12" height="1" fill="#4d9be6"/>
  <rect x="14" y="13" width="1" height="1" fill="#4d65b4"/>
  <rect x="15" y="13" width="1" height="1" fill="#3e3546"/>
  <rect x="1" y="14" width="1" height="1" fill="#3e3546"/>
  <rect x="2" y="14" width="12" height="1" fill="#4d65b4"/>
  <rect x="14" y="14" width="1" height="1" fill="#3e3546"/>
  <rect x="2" y="15" width="12" height="1" fill="#3e3546"/>
</svg>
