<?xml version="1.0" encoding="UTF-8"?>
<svg width="512" height="512" version="1.1" xmlns="http://www.w3.org/2000/svg">
<path d="m320 224h64v32h32v32h32v32h-32v32h-32v32h-32v32h-64v-32h-32v-32h-32v-32h32v-32h32v-32h32z" fill="#1ebc73"/>
<path d="m160 96h64v32h32v32h32v32h-32v32h-32v32h-32v32h-64v-32h-32v-32h-32v-32h32v-32h32v-32h32z" fill="#1ebc73"/>
<path d="m64 352h96v32h32v32h32v32h32v32h-96v-32h-32v-32h-32v-32h-32z" fill="#1ebc73"/>
<path d="m256 32h96v32h32v32h32v32h32v32h-96v-32h-32v-32h-32v-32h-32z" fill="#1ebc73"/>
<path d="m96 288h32v32h64v32h-160v-32h64z" fill="#3e3546"/>
<path d="m320 160h160v32h-64v32h-32v-32h-64z" fill="#3e3546"/>
<path d="m128 480h160v32h-160z" fill="#3e3546"/>
<path d="m224 0h160v32h-160z" fill="#3e3546"/>
<path d="m288 448h64v32h-64z" fill="#3e3546"/>
<path d="m0 256h32v64h-32z" fill="#3e3546"/>
<path d="m480 192h32v64h-32z" fill="#3e3546"/>
<path d="m160 32h64v32h-64z" fill="#3e3546"/>
<path d="m256 448h32v32h-32z" fill="#91db69"/>
<path d="m128 448h32v32h-32z" fill="#0b8a8f"/>
<path d="m96 448h32v32h-32z" fill="#3e3546"/>
<path d="m352 416h32v32h-32z" fill="#3e3546"/>
<path d="m320 416h32v32h-32z" fill="#0b8a8f"/>
<path d="m288 416h32v32h-32z" fill="#91db69"/>
<path d="m256 416h32v32h-32z" fill="#3e3546"/>
<path d="m224 416h32v32h-32z" fill="#91db69"/>
<path d="m96 416h32v32h-32z" fill="#0b8a8f"/>
<path d="m64 416h32v32h-32z" fill="#3e3546"/>
<path d="m384 384h32v32h-32z" fill="#3e3546"/>
<path d="m352 384h32v32h-32z" fill="#0b8a8f"/>
<path d="m256 384h32v32h-32z" fill="#91db69"/>
<path d="m224 384h32v32h-32z" fill="#3e3546"/>
<path d="m192 384h32v32h-32z" fill="#91db69"/>
<path d="m64 384h32v32h-32z" fill="#0b8a8f"/>
<path d="m32 384h32v32h-32z" fill="#3e3546"/>
<path d="m416 352h32v32h-32z" fill="#3e3546"/>
<path d="m384 352h32v32h-32z" fill="#0b8a8f"/>
<path d="m224 352h32v32h-32z" fill="#91db69"/>
<path d="m192 352h32v32h-32z" fill="#3e3546"/>
<path d="m160 352h32v32h-32z" fill="#91db69"/>
<path d="m32 352h32v32h-32z" fill="#0b8a8f"/>
<path d="m0 352h32v32h-32z" fill="#3e3546"/>
<path d="m448 320h32v32h-32z" fill="#3e3546"/>
<path d="m416 320h32v32h-32z" fill="#0b8a8f"/>
<path d="m192 320h32v32h-32z" fill="#91db69"/>
<path d="m480 288h32v32h-32z" fill="#3e3546"/>
<path d="m448 288h32v32h-32z" fill="#0b8a8f"/>
<path d="m224 288h32v32h-32z" fill="#91db69"/>
<path d="m192 288h32v32h-32z" fill="#3e3546"/>
<path d="m160 288h32v32h-32z" fill="#91db69"/>
<path d="m128 288h32v32h-32z" fill="#0b8a8f"/>
<path d="m64 288h32v32h-32z" fill="#91db69"/>
<path d="m32 288h32v32h-32z" fill="#0b8a8f"/>
<path d="m448 256h32v32h-32z" fill="#3e3546"/>
<path d="m416 256h32v32h-32z" fill="#0b8a8f"/>
<path d="m256 256h32v32h-32z" fill="#91db69"/>
<path d="m224 256h32v32h-32z" fill="#3e3546"/>
<path d="m192 256h32v32h-32z" fill="#91db69"/>
<path d="m96 256h32v32h-32z" fill="#0b8a8f"/>
<path d="m64 256h32v32h-32z" fill="#3e3546"/>
<path d="m32 256h32v32h-32z" fill="#1ebc73"/>
<path d="m448 224h32v32h-32z" fill="#1ebc73"/>
<path d="m416 224h32v32h-32z" fill="#3e3546"/>
<path d="m384 224h32v32h-32z" fill="#0b8a8f"/>
<path d="m288 224h32v32h-32z" fill="#91db69"/>
<path d="m256 224h32v32h-32z" fill="#3e3546"/>
<path d="m224 224h32v32h-32z" fill="#91db69"/>
<path d="m64 224h32v32h-32z" fill="#0b8a8f"/>
<path d="m32 224h32v32h-32z" fill="#3e3546"/>
<path d="m448 192h32v32h-32z" fill="#0b8a8f"/>
<path d="m416 192h32v32h-32z" fill="#91db69"/>
<path d="m352 192h32v32h-32z" fill="#0b8a8f"/>
<path d="m320 192h32v32h-32z" fill="#91db69"/>
<path d="m288 192h32v32h-32z" fill="#3e3546"/>
<path d="m256 192h32v32h-32z" fill="#91db69"/>
<path d="m32 192h32v32h-32z" fill="#0b8a8f"/>
<path d="m0 192h32v32h-32z" fill="#3e3546"/>
<path d="m288 160h32v32h-32z" fill="#91db69"/>
<path d="m64 160h32v32h-32z" fill="#0b8a8f"/>
<path d="m32 160h32v32h-32z" fill="#3e3546"/>
<path d="m480 128h32v32h-32z" fill="#3e3546"/>
<path d="m448 128h32v32h-32z" fill="#0b8a8f"/>
<path d="m320 128h32v32h-32z" fill="#91db69"/>
<path d="m288 128h32v32h-32z" fill="#3e3546"/>
<path d="m256 128h32v32h-32z" fill="#91db69"/>
<path d="m96 128h32v32h-32z" fill="#0b8a8f"/>
<path d="m64 128h32v32h-32z" fill="#3e3546"/>
<path d="m448 96h32v32h-32z" fill="#3e3546"/>
<path d="m416 96h32v32h-32z" fill="#0b8a8f"/>
<path d="m288 96h32v32h-32z" fill="#91db69"/>
<path d="m256 96h32v32h-32z" fill="#3e3546"/>
<path d="m224 96h32v32h-32z" fill="#91db69"/>
<path d="m128 96h32v32h-32z" fill="#0b8a8f"/>
<path d="m96 96h32v32h-32z" fill="#3e3546"/>
<path d="m416 64h32v32h-32z" fill="#3e3546"/>
<path d="m384 64h32v32h-32z" fill="#0b8a8f"/>
<path d="m256 64h32v32h-32z" fill="#91db69"/>
<path d="m224 64h32v32h-32z" fill="#3e3546"/>
<path d="m192 64h32v32h-32z" fill="#91db69"/>
<path d="m160 64h32v32h-32z" fill="#0b8a8f"/>
<path d="m128 64h32v32h-32z" fill="#3e3546"/>
<path d="m384 32h32v32h-32z" fill="#3e3546"/>
<path d="m352 32h32v32h-32z" fill="#0b8a8f"/>
<path d="m224 32h32v32h-32z" fill="#91db69"/>
</svg>
