<?xml version="1.0" encoding="UTF-8"?>
<svg width="256" height="512" shape-rendering="crispEdges" version="1.1" viewBox="128 0 256 512" xmlns="http://www.w3.org/2000/svg">
<path transform="translate(224,64)" d="m0 0h64v32h32v32h-32v32h32v32h-32v32h32v64h-128v-64h32v-32h-32v-32h32v-32h-32v-32h32z" fill="#AB947A"/>
<path transform="translate(160,320)" d="m0 0h192v32h-32v32h32v32h-32v32h-128v-32h-32v-32h32v-32h-32zm64 32v64h64v-64z" fill="#3E3546"/>
<path transform="translate(160,192)" d="m0 0h32v96h128v-96h32v128h-192z" fill="#966C6C"/>
<path transform="translate(160,480)" d="m0 0h192v32h-192z" fill="#3E3546"/>
<path transform="translate(160,448)" d="m0 0h192v32h-192z" fill="#AB947A"/>
<path transform="translate(352,160)" d="m0 0h32v160h-32z" fill="#3E3546"/>
<path transform="translate(128,160)" d="m0 0h32v160h-32z" fill="#3E3546"/>
<path transform="translate(320,32)" d="m0 0h32v128h-32z" fill="#3E3546"/>
<path transform="translate(192,32)" d="m0 0h128v32h-128z" fill="#E3C896"/>
<path transform="translate(160,32)" d="m0 0h32v128h-32z" fill="#3E3546"/>
<path transform="translate(192)" d="m0 0h128v32h-128z" fill="#3E3546"/>
<path transform="translate(352,416)" d="m0 0h32v64h-32z" fill="#3E3546"/>
<path transform="translate(128,416)" d="m0 0h32v64h-32z" fill="#3E3546"/>
<path transform="translate(224,384)" d="m0 0h64v32h-64z" fill="#AB947A"/>
<path transform="translate(224,352)" d="m0 0h64v32h-64z" fill="#966C6C"/>
<path transform="translate(320,416)" d="m0 0h32v32h-32z" fill="#966C6C"/>
<path transform="translate(160,416)" d="m0 0h32v32h-32z" fill="#966C6C"/>
<path transform="translate(288,192)" d="m0 0h32v32h-32z" fill="#625565"/>
<path transform="translate(192,192)" d="m0 0h32v32h-32z" fill="#625565"/>
<path transform="translate(320,160)" d="m0 0h32v32h-32z" fill="#E3C896"/>
<path transform="translate(160,160)" d="m0 0h32v32h-32z" fill="#E3C896"/>
<path transform="translate(288,128)" d="m0 0h32v32h-32z" fill="#625565"/>
<path transform="translate(192,128)" d="m0 0h32v32h-32z" fill="#625565"/>
<path transform="translate(288,64)" d="m0 0h32v32h-32z" fill="#625565"/>
<path transform="translate(192,64)" d="m0 0h32v32h-32z" fill="#625565"/>
</svg>
