<?xml version="1.0" encoding="UTF-8"?>
<svg width="512" height="512" shape-rendering="crispEdges" version="1.1" viewBox="0 0 512 512" xmlns="http://www.w3.org/2000/svg">
<path transform="translate(160,64)" d="m0 0h96v96h-32v32h-32v32h-32v64h32v32h32v32h64v32h-32v32h-32v32h-64v-32h-64v-32h-32v-32h-32v-192h32v-32h32v-32h64z" fill="#fff"/>
<path transform="translate(256,64)" d="m0 0h96v32h64v32h32v32h32v96h-128v-32h-32v-32h-32v-32h-32z" fill="#4D9BE6"/>
<path transform="translate(352,256)" d="m0 0h128v96h-32v32h-32v32h-64v-32h32v-64h-64v-32h32z" fill="#fff"/>
<path transform="translate(192,448)" d="m0 0h32v32h32v-32h32v32h64v32h-192v-32h32z" fill="#3E3546"/>
<path transform="translate(480,160)" d="m0 0h32v192h-32z" fill="#3E3546"/>
<path transform="translate(0,160)" d="m0 0h32v192h-32z" fill="#3E3546"/>
<path transform="translate(160,32)" d="m0 0h192v32h-192z" fill="#8FD3FF"/>
<path transform="translate(160)" d="m0 0h192v32h-192z" fill="#3E3546"/>
<path transform="translate(224,224)" d="m0 0h64v64h-64z" fill="#3E3546"/>
<path transform="translate(320,320)" d="m0 0h64v64h-32v-32h-32z" fill="#3E3546"/>
<path transform="translate(352,448)" d="m0 0h64v32h-64z" fill="#3E3546"/>
<path transform="translate(288,448)" d="m0 0h64v32h-64z" fill="#4D9BE6"/>
<path transform="translate(96,448)" d="m0 0h64v32h-64z" fill="#3E3546"/>
<path transform="translate(352,416)" d="m0 0h64v32h-64z" fill="#4D9BE6"/>
<path transform="translate(96,416)" d="m0 0h64v32h-64z" fill="#4D9BE6"/>
<path transform="translate(448,352)" d="m0 0h32v64h-32z" fill="#3E3546"/>
<path transform="translate(32,352)" d="m0 0h32v64h-32z" fill="#3E3546"/>
<path transform="translate(224,320)" d="m0 0h64v32h-64z" fill="#3E3546"/>
<path transform="translate(224,288)" d="m0 0h64v32h-64z" fill="#625565"/>
<path transform="translate(320,224)" d="m0 0h32v64h-32z" fill="#3E3546"/>
<path transform="translate(288,224)" d="m0 0h32v64h-32z" fill="#625565"/>
<path transform="translate(192,224)" d="m0 0h32v64h-32z" fill="#625565"/>
<path transform="translate(160,224)" d="m0 0h32v64h-32z" fill="#3E3546"/>
<path transform="translate(224,192)" d="m0 0h64v32h-64z" fill="#625565"/>
<path transform="translate(224,160)" d="m0 0h64v32h-64z" fill="#3E3546"/>
<path transform="translate(448,96)" d="m0 0h32v64h-32z" fill="#3E3546"/>
<path transform="translate(32,96)" d="m0 0h32v64h-32z" fill="#3E3546"/>
<path transform="translate(352,64)" d="m0 0h64v32h-64z" fill="#8FD3FF"/>
<path transform="translate(96,64)" d="m0 0h64v32h-64z" fill="#8FD3FF"/>
<path transform="translate(352,32)" d="m0 0h64v32h-64z" fill="#3E3546"/>
<path transform="translate(96,32)" d="m0 0h64v32h-64z" fill="#3E3546"/>
<path transform="translate(224,448)" d="m0 0h32v32h-32z" fill="#625565"/>
<path transform="translate(160,448)" d="m0 0h32v32h-32z" fill="#4D9BE6"/>
<path transform="translate(416,416)" d="m0 0h32v32h-32z" fill="#3E3546"/>
<path transform="translate(320,416)" d="m0 0h32v32h-32z" fill="#fff"/>
<path transform="translate(288,416)" d="m0 0h32v32h-32z" fill="#3E3546"/>
<path transform="translate(256,416)" d="m0 0h32v32h-32z" fill="#625565"/>
<path transform="translate(224,416)" d="m0 0h32v32h-32z" fill="#3E3546"/>
<path transform="translate(64,416)" d="m0 0h32v32h-32z" fill="#3E3546"/>
<path transform="translate(416,384)" d="m0 0h32v32h-32z" fill="#4D9BE6"/>
<path transform="translate(320,384)" d="m0 0h32v32h-32z" fill="#3E3546"/>
<path transform="translate(288,384)" d="m0 0h32v32h-32z" fill="#625565"/>
<path transform="translate(256,384)" d="m0 0h32v32h-32z" fill="#3E3546"/>
<path transform="translate(64,384)" d="m0 0h32v32h-32z" fill="#4D9BE6"/>
<path transform="translate(320,352)" d="m0 0h32v32h-32z" fill="#625565"/>
<path transform="translate(288,352)" d="m0 0h32v32h-32z" fill="#3E3546"/>
<path transform="translate(288,320)" d="m0 0h32v32h-32z" fill="#fff"/>
<path transform="translate(288,288)" d="m0 0h32v32h-32z" fill="#3E3546"/>
<path transform="translate(192,288)" d="m0 0h32v32h-32z" fill="#3E3546"/>
<path transform="translate(288,192)" d="m0 0h32v32h-32z" fill="#3E3546"/>
<path transform="translate(192,192)" d="m0 0h32v32h-32z" fill="#3E3546"/>
<path transform="translate(416,96)" d="m0 0h32v32h-32z" fill="#8FD3FF"/>
<path transform="translate(64,96)" d="m0 0h32v32h-32z" fill="#8FD3FF"/>
<path transform="translate(416,64)" d="m0 0h32v32h-32z" fill="#3E3546"/>
<path transform="translate(64,64)" d="m0 0h32v32h-32z" fill="#3E3546"/>
</svg>
