<?xml version="1.0" encoding="UTF-8"?>
<svg width="288" height="512" shape-rendering="crispEdges" version="1.1" viewBox="128 0 288 512" xmlns="http://www.w3.org/2000/svg">
<path transform="translate(192,160)" d="m0 0h32v64h32v96h32v-96h32v-64h32v32h32v96h-32v64h-32v96h-96v-96h-32v-64h-32v-96h32z" fill="#AB947A"/>
<path transform="translate(384,160)" d="m0 0h32v288h-32z" fill="#3E3546"/>
<path transform="translate(128,160)" d="m0 0h32v288h-32z" fill="#3E3546"/>
<path transform="translate(288)" d="m0 0h32v64h-32v32h64v32h-160v-32h64v-64h32z" fill="#3E3546"/>
<path transform="translate(352,288)" d="m0 0h32v128h-32v32h-32v-96h32z" fill="#625565"/>
<path transform="translate(160,288)" d="m0 0h32v64h32v96h-32v-32h-32z" fill="#625565"/>
<path transform="translate(192,480)" d="m0 0h160v32h-160z" fill="#3E3546"/>
<path transform="translate(192,448)" d="m0 0h160v32h-160z" fill="#966C6C"/>
<path transform="translate(288,160)" d="m0 0h32v64h-32z" fill="#625565"/>
<path transform="translate(256,160)" d="m0 0h32v64h-32z" fill="#3E3546"/>
<path transform="translate(224,160)" d="m0 0h32v64h-32z" fill="#625565"/>
<path transform="translate(288,128)" d="m0 0h64v32h-64z" fill="#E3C896"/>
<path transform="translate(192,128)" d="m0 0h64v32h-64z" fill="#E3C896"/>
<path transform="translate(352,448)" d="m0 0h32v32h-32z" fill="#3E3546"/>
<path transform="translate(160,448)" d="m0 0h32v32h-32z" fill="#3E3546"/>
<path transform="translate(352,416)" d="m0 0h32v32h-32z" fill="#966C6C"/>
<path transform="translate(160,416)" d="m0 0h32v32h-32z" fill="#966C6C"/>
<path transform="translate(256,288)" d="m0 0h32v32h-32z" fill="#625565"/>
<path transform="translate(256,256)" d="m0 0h32v32h-32z" fill="#3E3546"/>
<path transform="translate(256,224)" d="m0 0h32v32h-32z" fill="#625565"/>
<path transform="translate(352,160)" d="m0 0h32v32h-32z" fill="#E3C896"/>
<path transform="translate(160,160)" d="m0 0h32v32h-32z" fill="#E3C896"/>
<path transform="translate(352,128)" d="m0 0h32v32h-32z" fill="#3E3546"/>
<path transform="translate(256,128)" d="m0 0h32v32h-32z" fill="#625565"/>
<path transform="translate(160,128)" d="m0 0h32v32h-32z" fill="#3E3546"/>
</svg>
