<?xml version="1.0" encoding="UTF-8"?>
<svg width="512" height="384" shape-rendering="crispEdges" version="1.1" viewBox="0 128 512 384" xmlns="http://www.w3.org/2000/svg">
<path transform="translate(64,192)" d="m0 0h96v32h192v-32h96v32h32v96h-32v96h32v32h-96v-32h32v-64h-32v-32h-64v32h-128v-32h-64v32h-32v64h32v32h-96v-32h32v-96h-32v-96h32zm32 32v32h-32v32h32v32h32v-32h32v-32h-32v-32zm288 0v32h-32v32h32v32h32v-32h32v-32h-32v-32zm-192 64v32h32v-32zm96 0v32h32v-32z" fill="#AB947A"/>
<path transform="translate(480,192)" d="m0 0h32v288h-32z" fill="#3E3546"/>
<path transform="translate(0,192)" d="m0 0h32v288h-32z" fill="#3E3546"/>
<path transform="translate(192,352)" d="m0 0h32v32h64v-32h32v64h-128z" fill="#3E3546"/>
<path transform="translate(160,192)" d="m0 0h192v32h-192z" fill="#E3C896"/>
<path transform="translate(160,160)" d="m0 0h192v32h-192z" fill="#3E3546"/>
<path transform="translate(96,224)" d="m0 0h32v32h32v32h-32v32h-32v-32h-32v-32h32z" fill="#3E3546"/>
<path transform="translate(320,352)" d="m0 0h64v64h-64z" fill="#625565"/>
<path transform="translate(128,352)" d="m0 0h64v64h-64z" fill="#625565"/>
<path transform="translate(384,480)" d="m0 0h96v32h-96z" fill="#3E3546"/>
<path transform="translate(32,480)" d="m0 0h96v32h-96z" fill="#3E3546"/>
<path transform="translate(384,448)" d="m0 0h96v32h-96z" fill="#966C6C"/>
<path transform="translate(32,448)" d="m0 0h96v32h-96z" fill="#966C6C"/>
<path transform="translate(320,416)" d="m0 0h64v64h-32v-32h-32z" fill="#3E3546"/>
<path transform="translate(128,416)" d="m0 0h64v32h-32v32h-32z" fill="#3E3546"/>
<path transform="translate(448,320)" d="m0 0h32v96h-32z" fill="#625565"/>
<path transform="translate(32,320)" d="m0 0h32v96h-32z" fill="#625565"/>
<path transform="translate(352,160)" d="m0 0h96v32h-96z" fill="#625565"/>
<path transform="translate(64,160)" d="m0 0h96v32h-96z" fill="#625565"/>
<path transform="translate(352,128)" d="m0 0h96v32h-96z" fill="#3E3546"/>
<path transform="translate(64,128)" d="m0 0h96v32h-96z" fill="#3E3546"/>
<path transform="translate(384,352)" d="m0 0h32v64h-32z" fill="#3E3546"/>
<path transform="translate(224,352)" d="m0 0h64v32h-64z" fill="#966C6C"/>
<path transform="translate(96,352)" d="m0 0h32v64h-32z" fill="#3E3546"/>
<path transform="translate(320,320)" d="m0 0h64v32h-64z" fill="#3E3546"/>
<path transform="translate(128,320)" d="m0 0h64v32h-64z" fill="#3E3546"/>
<path transform="translate(384,288)" d="m0 0h32v32h-32z" fill="#3E3546"/>
<path transform="translate(288,288)" d="m0 0h32v32h-32z" fill="#3E3546"/>
<path transform="translate(192,288)" d="m0 0h32v32h-32z" fill="#3E3546"/>
<path transform="translate(416,256)" d="m0 0h32v32h-32z" fill="#3E3546"/>
<path transform="translate(384,256)" d="m0 0h32v32h-32z" fill="#AB947A"/>
<path transform="translate(352,256)" d="m0 0h32v32h-32z" fill="#3E3546"/>
<path transform="translate(384,224)" d="m0 0h32v32h-32z" fill="#3E3546"/>
<path transform="translate(448,192)" d="m0 0h32v32h-32z" fill="#E3C896"/>
<path transform="translate(32,192)" d="m0 0h32v32h-32z" fill="#E3C896"/>
<path transform="translate(448,160)" d="m0 0h32v32h-32z" fill="#3E3546"/>
<path transform="translate(32,160)" d="m0 0h32v32h-32z" fill="#3E3546"/>
</svg>
