<?xml version="1.0" encoding="UTF-8"?>
<svg width="512" height="448" shape-rendering="crispEdges" version="1.1" viewBox="0 32 512 448" xmlns="http://www.w3.org/2000/svg">
<path transform="translate(256,32)" d="m0 0h32v64h-32v32h256v352h-512v-352h224v-64h32zm-224 128v256h448v-256z" fill="#3E3546"/>
<path transform="translate(96,384)" d="m0 0h288v32h-288z" fill="#E3C896"/>
<path transform="translate(96,352)" d="m0 0h288v32h-288z" fill="#625565"/>
<path transform="translate(384,288)" d="m0 0h32v128h-32z" fill="#AB947A"/>
<path transform="translate(64,288)" d="m0 0h32v128h-32z" fill="#AB947A"/>
<path transform="translate(416,384)" d="m0 0h64v32h-64z" fill="#E3C896"/>
<path transform="translate(416,352)" d="m0 0h64v32h-64z" fill="#625565"/>
<path transform="translate(448,288)" d="m0 0h32v64h-32z" fill="#AB947A"/>
<path transform="translate(320,288)" d="m0 0h32v64h-32z" fill="#AB947A"/>
<path transform="translate(256,288)" d="m0 0h32v64h-32z" fill="#AB947A"/>
<path transform="translate(192,288)" d="m0 0h32v64h-32z" fill="#AB947A"/>
<path transform="translate(128,288)" d="m0 0h32v64h-32z" fill="#AB947A"/>
<path transform="translate(416,224)" d="m0 0h32v64h-32z" fill="#AB947A"/>
<path transform="translate(352,224)" d="m0 0h32v64h-32z" fill="#AB947A"/>
<path transform="translate(288,224)" d="m0 0h32v64h-32z" fill="#AB947A"/>
<path transform="translate(224,224)" d="m0 0h32v64h-32z" fill="#AB947A"/>
<path transform="translate(160,224)" d="m0 0h32v64h-32z" fill="#AB947A"/>
<path transform="translate(96,224)" d="m0 0h32v64h-32z" fill="#AB947A"/>
<path transform="translate(32,224)" d="m0 0h32v64h-32z" fill="#AB947A"/>
<path transform="translate(448,160)" d="m0 0h32v64h-32z" fill="#AB947A"/>
<path transform="translate(384,160)" d="m0 0h32v64h-32z" fill="#AB947A"/>
<path transform="translate(320,160)" d="m0 0h32v64h-32z" fill="#AB947A"/>
<path transform="translate(256,160)" d="m0 0h32v64h-32z" fill="#AB947A"/>
<path transform="translate(192,160)" d="m0 0h32v64h-32z" fill="#AB947A"/>
<path transform="translate(128,160)" d="m0 0h32v64h-32z" fill="#AB947A"/>
<path transform="translate(64,160)" d="m0 0h32v64h-32z" fill="#AB947A"/>
<path transform="translate(32,384)" d="m0 0h32v32h-32z" fill="#E3C896"/>
<path transform="translate(32,352)" d="m0 0h32v32h-32z" fill="#625565"/>
<path transform="translate(416,320)" d="m0 0h32v32h-32z" fill="#E3C896"/>
<path transform="translate(352,320)" d="m0 0h32v32h-32z" fill="#E3C896"/>
<path transform="translate(288,320)" d="m0 0h32v32h-32z" fill="#E3C896"/>
<path transform="translate(224,320)" d="m0 0h32v32h-32z" fill="#E3C896"/>
<path transform="translate(160,320)" d="m0 0h32v32h-32z" fill="#E3C896"/>
<path transform="translate(96,320)" d="m0 0h32v32h-32z" fill="#E3C896"/>
<path transform="translate(32,320)" d="m0 0h32v32h-32z" fill="#E3C896"/>
<path transform="translate(416,288)" d="m0 0h32v32h-32z" fill="#625565"/>
<path transform="translate(352,288)" d="m0 0h32v32h-32z" fill="#625565"/>
<path transform="translate(288,288)" d="m0 0h32v32h-32z" fill="#625565"/>
<path transform="translate(224,288)" d="m0 0h32v32h-32z" fill="#625565"/>
<path transform="translate(160,288)" d="m0 0h32v32h-32z" fill="#625565"/>
<path transform="translate(96,288)" d="m0 0h32v32h-32z" fill="#625565"/>
<path transform="translate(32,288)" d="m0 0h32v32h-32z" fill="#625565"/>
<path transform="translate(448,256)" d="m0 0h32v32h-32z" fill="#E3C896"/>
<path transform="translate(384,256)" d="m0 0h32v32h-32z" fill="#E3C896"/>
<path transform="translate(320,256)" d="m0 0h32v32h-32z" fill="#E3C896"/>
<path transform="translate(256,256)" d="m0 0h32v32h-32z" fill="#E3C896"/>
<path transform="translate(192,256)" d="m0 0h32v32h-32z" fill="#E3C896"/>
<path transform="translate(128,256)" d="m0 0h32v32h-32z" fill="#E3C896"/>
<path transform="translate(64,256)" d="m0 0h32v32h-32z" fill="#E3C896"/>
<path transform="translate(448,224)" d="m0 0h32v32h-32z" fill="#625565"/>
<path transform="translate(384,224)" d="m0 0h32v32h-32z" fill="#625565"/>
<path transform="translate(320,224)" d="m0 0h32v32h-32z" fill="#625565"/>
<path transform="translate(256,224)" d="m0 0h32v32h-32z" fill="#625565"/>
<path transform="translate(192,224)" d="m0 0h32v32h-32z" fill="#625565"/>
<path transform="translate(128,224)" d="m0 0h32v32h-32z" fill="#625565"/>
<path transform="translate(64,224)" d="m0 0h32v32h-32z" fill="#625565"/>
<path transform="translate(416,192)" d="m0 0h32v32h-32z" fill="#E3C896"/>
<path transform="translate(352,192)" d="m0 0h32v32h-32z" fill="#E3C896"/>
<path transform="translate(288,192)" d="m0 0h32v32h-32z" fill="#E3C896"/>
<path transform="translate(224,192)" d="m0 0h32v32h-32z" fill="#E3C896"/>
<path transform="translate(160,192)" d="m0 0h32v32h-32z" fill="#E3C896"/>
<path transform="translate(96,192)" d="m0 0h32v32h-32z" fill="#E3C896"/>
<path transform="translate(32,192)" d="m0 0h32v32h-32z" fill="#E3C896"/>
<path transform="translate(416,160)" d="m0 0h32v32h-32z" fill="#625565"/>
<path transform="translate(352,160)" d="m0 0h32v32h-32z" fill="#625565"/>
<path transform="translate(288,160)" d="m0 0h32v32h-32z" fill="#625565"/>
<path transform="translate(224,160)" d="m0 0h32v32h-32z" fill="#625565"/>
<path transform="translate(160,160)" d="m0 0h32v32h-32z" fill="#625565"/>
<path transform="translate(96,160)" d="m0 0h32v32h-32z" fill="#625565"/>
<path transform="translate(32,160)" d="m0 0h32v32h-32z" fill="#625565"/>
</svg>
