<?xml version="1.0" encoding="UTF-8"?>
<!-- Generator: visioncortex VTracer 0.6.12 -->
<svg width="512" height="512" version="1.1" xmlns="http://www.w3.org/2000/svg">
 <path transform="translate(160)" d="m0 0h192v32h64v32h32v32h32v64h32v192h-32v64h-32v32h-32v32h-64v32h-192v-32h-64v-32h-32v-32h-32v-64h-32v-192h32v-64h32v-32h32v-32h64v-32zm64 192v32h-32v64h32v32h64v-32h32v-64h-32v-32h-64z" fill="#fff"/>
 <path transform="translate(32,352)" d="m0 0h32v32h32v32h64v32h192v-32h64v-32h32v-32h32v64h-32v32h-32v32h-64v32h-192v-32h-64v-32h-32v-32h-32v-64z" fill="#3E3546"/>
 <path transform="translate(160)" d="m0 0h192v32h64v32h32v32h32v64h-32v-32h-32v-32h-64v-32h-192v32h-64v32h-32v32h-32v-64h32v-32h32v-32h64v-32z" fill="#8FD3FF"/>
 <path transform="translate(192,160)" d="m0 0h128v32h32v128h-32v32h-128v-32h-32v-128h32v-32zm32 32v32h-32v64h32v32h64v-32h32v-64h-32v-32h-64z" fill="#3E3546"/>
 <path transform="translate(448,352)" d="m0 0h32v64h-32v32h-32v32h-64v-64h64v-32h32v-32z" fill="#3E3546"/>
 <path transform="translate(352,32)" d="m0 0h64v32h32v32h32v64h-32v-32h-32v-32h-64v-64z" fill="#8FD3FF"/>
 <path transform="translate(96,32)" d="m0 0h64v64h-64v32h-32v32h-32v-64h32v-32h32v-32z" fill="#8FD3FF"/>
 <path transform="translate(160,480)" d="m0 0h192v32h-192v-32z" fill="#3E3546"/>
 <path transform="translate(160,448)" d="m0 0h192v32h-192v-32z" fill="#4D9BE6"/>
 <path transform="translate(480,160)" d="m0 0h32v192h-32v-192z" fill="#3E3546"/>
 <path transform="translate(0,160)" d="m0 0h32v192h-32v-192z" fill="#3E3546"/>
 <path transform="translate(160)" d="m0 0h192v32h-192v-32z" fill="#3E3546"/>
 <path transform="translate(352,448)" d="m0 0h64v32h-64v-32z" fill="#3E3546"/>
 <path transform="translate(96,448)" d="m0 0h64v32h-64v-32z" fill="#3E3546"/>
 <path transform="translate(352,416)" d="m0 0h64v32h-64v-32z" fill="#4D9BE6"/>
 <path transform="translate(96,416)" d="m0 0h64v32h-64v-32z" fill="#4D9BE6"/>
 <path transform="translate(448,96)" d="m0 0h32v64h-32v-64z" fill="#3E3546"/>
 <path transform="translate(32,96)" d="m0 0h32v64h-32v-64z" fill="#3E3546"/>
 <path transform="translate(352,32)" d="m0 0h64v32h-64v-32z" fill="#3E3546"/>
 <path transform="translate(96,32)" d="m0 0h64v32h-64v-32z" fill="#3E3546"/>
 <path transform="translate(416,416)" d="m0 0h32v32h-32v-32z" fill="#3E3546"/>
 <path transform="translate(64,416)" d="m0 0h32v32h-32v-32z" fill="#3E3546"/>
 <path transform="translate(416,384)" d="m0 0h32v32h-32v-32z" fill="#4D9BE6"/>
 <path transform="translate(64,384)" d="m0 0h32v32h-32v-32z" fill="#4D9BE6"/>
 <path transform="translate(416,96)" d="m0 0h32v32h-32v-32z" fill="#8FD3FF"/>
 <path transform="translate(64,96)" d="m0 0h32v32h-32v-32z" fill="#8FD3FF"/>
 <path transform="translate(416,64)" d="m0 0h32v32h-32v-32z" fill="#3E3546"/>
 <path transform="translate(64,64)" d="m0 0h32v32h-32v-32z" fill="#3E3546"/>
</svg>
