<?xml version="1.0" encoding="UTF-8"?>
<!-- Generator: visioncortex VTracer 0.6.12 -->
<svg width="512" height="512" version="1.1" xmlns="http://www.w3.org/2000/svg">
 <path transform="translate(64)" d="m0 0h256v32h32v32h32v32h32v32h32v32h32v320h-32v32h-384v-32h-32v-448h32v-32z" fill="#4D9BE6"/>
 <path transform="translate(64,32)" d="m0 0h224v160h-96v32h-32v32h32v64h-32v32h32v32h64v32h32v32h-224v-416z" fill="#4D9BE6"/>
 <path transform="translate(64)" d="m0 0h256v32h32v32h32v32h32v32h32v32h32v320h-32v-288h-160v-160h-224v-32z" fill="#3E3546"/>
 <path transform="translate(96,160)" d="m0 0h64v32h32v32h-32v32h32v64h-32v32h32v32h-32v32h-64v-64h32v-32h-32v-64h32v-32h-32v-64z" fill="#fff"/>
 <path transform="translate(32,32)" d="m0 0h32v448h-32v-448z" fill="#3E3546"/>
 <path transform="translate(64,480)" d="m0 0h384v32h-384v-32z" fill="#3E3546"/>
 <path transform="translate(64,448)" d="m0 0h384v32h-384v-32z" fill="#4D65B4"/>
 <path transform="translate(320,64)" d="m0 0h64v32h32v64h-96v-96z" fill="#4D9BE6"/>
 <path transform="translate(160,384)" d="m0 0h96v32h32v32h-128v-64z" fill="#4D9BE6"/>
 <path transform="translate(64,32)" d="m0 0h224v32h-224v-32z" fill="#8FD3FF"/>
 <path transform="translate(288,192)" d="m0 0h160v32h-160v-32z" fill="#4D65B4"/>
 <path transform="translate(96,160)" d="m0 0h64v32h32v32h-96v-64z" fill="#fff"/>
 <path transform="translate(96,352)" d="m0 0h32v32h32v32h-64v-64z" fill="#fff"/>
 <path transform="translate(192,384)" d="m0 0h64v32h-64v-32z" fill="#fff"/>
 <path transform="translate(160,224)" d="m0 0h64v32h-64v-32z" fill="#8FD3FF"/>
 <path transform="translate(192,160)" d="m0 0h64v32h-64v-32z" fill="#fff"/>
 <path transform="translate(384,416)" d="m0 0h32v32h-32v-32z" fill="#8FD3FF"/>
 <path transform="translate(320,416)" d="m0 0h32v32h-32v-32z" fill="#8FD3FF"/>
 <path transform="translate(256,416)" d="m0 0h32v32h-32v-32z" fill="#8FD3FF"/>
 <path transform="translate(224,416)" d="m0 0h32v32h-32v-32z" fill="#4D9BE6"/>
 <path transform="translate(192,416)" d="m0 0h32v32h-32v-32z" fill="#8FD3FF"/>
 <path transform="translate(128,416)" d="m0 0h32v32h-32v-32z" fill="#8FD3FF"/>
 <path transform="translate(96,416)" d="m0 0h32v32h-32v-32z" fill="#4D9BE6"/>
 <path transform="translate(64,416)" d="m0 0h32v32h-32v-32z" fill="#8FD3FF"/>
 <path transform="translate(64,384)" d="m0 0h32v32h-32v-32z" fill="#4D9BE6"/>
 <path transform="translate(384,352)" d="m0 0h32v32h-32v-32z" fill="#8FD3FF"/>
 <path transform="translate(320,352)" d="m0 0h32v32h-32v-32z" fill="#8FD3FF"/>
 <path transform="translate(256,352)" d="m0 0h32v32h-32v-32z" fill="#8FD3FF"/>
 <path transform="translate(192,352)" d="m0 0h32v32h-32v-32z" fill="#8FD3FF"/>
 <path transform="translate(160,352)" d="m0 0h32v32h-32v-32z" fill="#fff"/>
 <path transform="translate(128,352)" d="m0 0h32v32h-32v-32z" fill="#8FD3FF"/>
 <path transform="translate(64,352)" d="m0 0h32v32h-32v-32z" fill="#8FD3FF"/>
 <path transform="translate(384,288)" d="m0 0h32v32h-32v-32z" fill="#8FD3FF"/>
 <path transform="translate(320,288)" d="m0 0h32v32h-32v-32z" fill="#8FD3FF"/>
 <path transform="translate(256,288)" d="m0 0h32v32h-32v-32z" fill="#8FD3FF"/>
 <path transform="translate(192,288)" d="m0 0h32v32h-32v-32z" fill="#8FD3FF"/>
 <path transform="translate(64,288)" d="m0 0h32v32h-32v-32z" fill="#8FD3FF"/>
 <path transform="translate(64,256)" d="m0 0h32v32h-32v-32z" fill="#4D9BE6"/>
 <path transform="translate(384,224)" d="m0 0h32v32h-32v-32z" fill="#8FD3FF"/>
 <path transform="translate(320,224)" d="m0 0h32v32h-32v-32z" fill="#8FD3FF"/>
 <path transform="translate(256,224)" d="m0 0h32v32h-32v-32z" fill="#8FD3FF"/>
 <path transform="translate(160,224)" d="m0 0h32v32h-32v-32z" fill="#4D9BE6"/>
 <path transform="translate(96,224)" d="m0 0h32v32h-32v-32z" fill="#4D9BE6"/>
 <path transform="translate(64,224)" d="m0 0h32v32h-32v-32z" fill="#8FD3FF"/>
 <path transform="translate(160,192)" d="m0 0h32v32h-32v-32z" fill="#fff"/>
 <path transform="translate(128,192)" d="m0 0h32v32h-32v-32z" fill="#4D9BE6"/>
 <path transform="translate(64,192)" d="m0 0h32v32h-32v-32z" fill="#4D9BE6"/>
 <path transform="translate(256,160)" d="m0 0h32v32h-32v-32z" fill="#8FD3FF"/>
 <path transform="translate(160,160)" d="m0 0h32v32h-32v-32z" fill="#8FD3FF"/>
 <path transform="translate(64,160)" d="m0 0h32v32h-32v-32z" fill="#8FD3FF"/>
 <path transform="translate(384,96)" d="m0 0h32v32h-32v-32z" fill="#3E3546"/>
 <path transform="translate(256,96)" d="m0 0h32v32h-32v-32z" fill="#8FD3FF"/>
 <path transform="translate(192,96)" d="m0 0h32v32h-32v-32z" fill="#8FD3FF"/>
 <path transform="translate(128,96)" d="m0 0h32v32h-32v-32z" fill="#8FD3FF"/>
 <path transform="translate(64,96)" d="m0 0h32v32h-32v-32z" fill="#8FD3FF"/>
 <path transform="translate(352,64)" d="m0 0h32v32h-32v-32z" fill="#3E3546"/>
</svg>
